<svg width="84" height="86" viewBox="0 0 84 86" xmlns="http://www.w3.org/2000/svg" xmlns:xlink="http://www.w3.org/1999/xlink"><title>CE6FEB7F-80B8-4C24-9F50-C7C78CC371D4</title><defs><path id="a" d="M83.387 84.96V.01H0v84.95h83.387z"/></defs><g fill="none" fill-rule="evenodd"><g transform="translate(0 .235)"><mask id="b" fill="#fff"><use xlink:href="#a"/></mask><path d="M72.704 10.893C65.175 3.066 53.434.091 41.694.01c-11.741.081-23.482 3.057-31.01 10.883C3 18.564.078 30.524 0 42.485c.08 11.961 3 23.922 10.683 31.592 7.528 7.827 19.27 10.802 31.01 10.883 11.741-.081 23.482-3.056 31.011-10.883 7.683-7.67 10.604-19.631 10.683-31.592-.08-11.961-3-23.922-10.683-31.592" fill="#EF404F" mask="url(#b)"/></g><path d="M45.529 49.724c-.945.982-2.418 1.355-3.89 1.365a7.337 7.337 0 0 1-1.939-.262V40.7a7.344 7.344 0 0 1 1.939-.262c1.472.01 2.945.383 3.89 1.364.964.962 1.33 2.461 1.34 3.96-.01 1.5-.376 3-1.34 3.961m7.942-14.707c-2.562-2.663-6.56-3.675-10.556-3.702-1.081.007-2.162.089-3.215.254v-7.681h-9.442v36.325h12.657c3.997-.028 7.993-1.04 10.556-3.703 2.616-2.609 3.61-6.677 3.637-10.746-.027-4.07-1.021-8.138-3.637-10.747" fill-opacity=".101" fill="#000"/><path d="M44.885 49.067c-.944.982-2.417 1.355-3.89 1.365a7.337 7.337 0 0 1-1.938-.262V40.044a7.344 7.344 0 0 1 1.938-.262c1.473.01 2.946.383 3.89 1.364.964.962 1.33 2.461 1.34 3.96-.01 1.5-.376 3-1.34 3.961m7.943-14.707c-2.563-2.663-6.56-3.675-10.557-3.702-1.081.007-2.162.089-3.214.254V23.23h-9.443v36.325h12.657c3.997-.028 7.994-1.04 10.557-3.703 2.615-2.609 3.61-6.677 3.636-10.746-.027-4.07-1.02-8.138-3.636-10.747" fill="#FFF"/></g></svg>